<svg xmlns="http://www.w3.org/2000/svg" width="80" height="79">
    <defs>
        <filter id="a">
            <feFlood flood-color="#000" flood-opacity="1" result="floodOut"/>
            <feComposite in="floodOut" in2="SourceGraphic" operator="atop" result="compOut"/>
            <feBlend in="compOut" in2="SourceGraphic"/>
        </filter>
    </defs>
    <path fill="#E23637" fill-rule="evenodd" d="M78.213 79.001H1.433a1.322 1.322 0 0 1-1.324-1.317V1.316A1.335 1.335 0 0 1 .256.742C.308.635.375.536.453.449.478.423.497.391.524.368.626.269.743.186.872.124.881.115.873.127.9.115.926.105.956.101.982.091c.123-.045.253-.071.384-.078C1.389.011 1.409 0 1.433 0h76.78a1.32 1.32 0 0 1 1.323 1.316v76.368a1.32 1.32 0 0 1-1.323 1.317zM2.757 24.839L13.662 15.8H2.757v9.039zM59.994 15.8H49.568L36.861 26.333h10.426L59.994 15.8zm-8.572 10.533h10.426L74.556 15.8H64.13L51.422 26.333zM45.433 15.8h-11.75L20.975 26.333h11.75L45.433 15.8zm-15.886 0H17.798L5.09 26.333h11.75L29.547 15.8zm-26.79-2.634h10.905L2.757 4.128v9.038zM5.09 2.634l12.708 10.532h11.749L16.84 2.634H5.09zm15.885 0l12.708 10.532h11.75L32.725 2.634h-11.75zm15.886 0l12.707 10.532h10.426L47.287 2.634H36.861zm14.561 0L64.13 13.166h10.426L61.848 2.634H51.422zm25.467 0H65.984l10.905 9.038V2.634zm0 14.66l-10.905 9.039h10.905v-9.039zm0 11.673H2.757v47.398h74.132V28.967zM39.823 35.55c9.5.01 17.198 7.669 17.209 17.118 0 9.451-7.705 17.116-17.209 17.116s-17.209-7.665-17.209-17.116c0-9.454 7.705-17.118 17.209-17.118zm0 31.6c8.038-.009 14.552-6.488 14.562-14.482 0-8-6.52-14.485-14.562-14.485s-14.562 6.485-14.562 14.485c0 7.998 6.52 14.482 14.562 14.482zM35.24 42.282a1.327 1.327 0 0 1 1.37.091l13.238 9.215a1.314 1.314 0 0 1 0 2.157L36.61 62.961a1.325 1.325 0 0 1-2.082-1.077V43.45c0-.491.275-.941.712-1.168zm1.935 17.074l9.606-6.688-9.606-6.69v13.378z" filter="url(#a)"/>
</svg>
