<svg xmlns="http://www.w3.org/2000/svg" width="37" height="37">
    <defs>
        <filter id="a">
            <feFlood flood-color="#000" flood-opacity="1" result="floodOut"/>
            <feComposite in="floodOut" in2="SourceGraphic" operator="atop" result="compOut"/>
            <feBlend in="compOut" in2="SourceGraphic"/>
        </filter>
    </defs>
    <path fill="#F3F9FC" fill-rule="evenodd" d="M36.453 33.278a.547.547 0 0 1 0 1.095H.547a.547.547 0 0 1-.528-.688 2.335 2.335 0 0 1 1.513-2.046 2.331 2.331 0 0 1 3.243-1.474c.229-.144.496-.223.775-.223h.006c.279 0 .547.079.775.223.215-.101.444-.169.68-.201v-7.279a4.296 4.296 0 0 1-2.062.525 4.326 4.326 0 0 1-4.221-5.245A2.476 2.476 0 0 1 0 16.218c0-.589.206-1.146.576-1.585A4.293 4.293 0 0 1 0 12.475a4.314 4.314 0 0 1 3.443-4.229c.054-.188.122-.371.201-.549a.549.549 0 0 1 1 .448 3.124 3.124 0 0 0-.219.687.546.546 0 0 1-.475.439 3.223 3.223 0 0 0-2.23 5.114.546.546 0 0 1-.102.754 1.37 1.37 0 0 0 .047 2.189c.19.139.272.381.202.606a3.229 3.229 0 0 0 3.082 4.18c.759 0 1.483-.264 2.062-.747v-1.759l-1.523-1.523a.548.548 0 0 1 .774-.775l.749.749v-3.354a.547.547 0 0 1 1.095 0v1.155l.739-.738a.547.547 0 0 1 .774.773l-1.513 1.514v3.959a3.21 3.21 0 0 0 2.062.746 3.228 3.228 0 0 0 3.09-4.148.548.548 0 0 1 .219-.61 1.372 1.372 0 0 0 .084-2.217.547.547 0 0 1-.103-.755 3.222 3.222 0 0 0-2.229-5.112.548.548 0 0 1-.475-.439A3.23 3.23 0 0 0 6.131 6.58a.546.546 0 1 1-.496-.975 4.27 4.27 0 0 1 1.955-.467 4.329 4.329 0 0 1 4.147 3.108 4.315 4.315 0 0 1 3.442 4.229c0 .766-.198 1.504-.576 2.157.371.439.576.996.576 1.586a2.46 2.46 0 0 1-.78 1.798 4.326 4.326 0 0 1-4.231 5.194c-.73 0-1.436-.183-2.062-.525v7.39a2.329 2.329 0 0 1 1.468 1.564c.728.27 1.272.891 1.453 1.639h1.963v-2.992H9.889a.547.547 0 0 1-.548-.547v-2.19c0-.302.245-.547.548-.547h7.298c.302 0 .547.245.547.547v2.19a.547.547 0 0 1-.547.547h-3.102v2.992h5.878l.647-8.684h-4.591a.548.548 0 0 1-.548-.548v-2.919c0-.302.245-.547.548-.547h10.034a.548.548 0 1 1 0 1.094h-9.487V23.5h13.209v-1.826h-1.14a.546.546 0 1 1 0-1.094h1.687c.303 0 .548.245.548.547v2.919a.548.548 0 0 1-.548.548h-4.591l.648 8.684h5.878v-2.992h-3.102a.547.547 0 0 1-.547-.547v-2.19c0-.302.245-.547.547-.547h7.298c.302 0 .547.245.547.547v2.19a.547.547 0 0 1-.547.547h-3.102v2.992h3.102zm-27.455-.669a.545.545 0 0 1-.438-.475 1.238 1.238 0 0 0-1.965-.856.548.548 0 0 1-.755-.103.36.36 0 0 0-.277-.138h-.019a.361.361 0 0 0-.278.138.548.548 0 0 1-.755.103 1.238 1.238 0 0 0-1.965.856.545.545 0 0 1-.439.475 1.236 1.236 0 0 0-.871.669h8.635a1.24 1.24 0 0 0-.873-.669zm7.641-3.418v-1.093h-6.203v1.093h6.203zm7.994-4.597h-2.925l-.648 8.684h4.221l-.648-8.684zm11.272 4.597v-1.093h-6.203v1.093h6.203zm-8.94-17.149a.547.547 0 1 1 0 1.094h-3.064a.548.548 0 1 1 0-1.094h3.064zm-4.305 1.97a.546.546 0 1 1 0 1.093h-3.065a.546.546 0 1 1 0-1.093h3.065zm-6.021-2.81c0-.302.245-.547.548-.547h3.065a.547.547 0 0 1 0 1.095h-3.065a.548.548 0 0 1-.548-.548zm19.74-.912H25.725a5.115 5.115 0 0 1-3.584-1.454 5.112 5.112 0 0 1-1.514-2.997H19.57a.548.548 0 0 1 0-1.096h3.705a1.963 1.963 0 0 0-1.882-1.411.572.572 0 0 1-.485-.18 3.222 3.222 0 0 0-2.398-1.074 3.225 3.225 0 0 0-2.785 1.611.555.555 0 0 1-.282.241c-.108.039-.207.028-.317.028-.54 0-1.006.323-1.215.785h3.075a.548.548 0 0 1 0 1.096h-3.74a.548.548 0 0 1-.548-.549c0-1.278.994-2.329 2.25-2.421A4.326 4.326 0 0 1 18.51.983a4.31 4.31 0 0 1 2.997 1.216A5.177 5.177 0 0 1 25.725 0a5.15 5.15 0 0 1 5.136 5.437l.128-.001c1.142 0 2.236.454 3.041 1.255a3.06 3.06 0 0 1 2.897 3.052.547.547 0 0 1-.548.547zM25.725 1.094c-1.185 0-2.311.53-3.073 1.415a3.058 3.058 0 0 1 1.796 2.781.549.549 0 0 1-.547.549h-2.167a4.025 4.025 0 0 0 3.513 3.328 2.43 2.43 0 0 1 2.18-1.845 4.335 4.335 0 0 1 2.319-1.703 4.056 4.056 0 0 0-4.021-4.525zm8.19 6.696c.177.003.637-.007-.042-.007a.604.604 0 0 1-.486-.179 3.218 3.218 0 0 0-2.398-1.074 3.223 3.223 0 0 0-2.785 1.612.556.556 0 0 1-.282.239c-.107.04-.206.028-.317.028-.54 0-1.006.324-1.215.786h9.365a1.96 1.96 0 0 0-1.84-1.405zm-.042-.007c.014 0 .027.006.042.007-.056-.001-.086-.003-.042-.007zM.547 35.905h35.906a.548.548 0 0 1 0 1.095H.547a.547.547 0 0 1 0-1.095z" filter="url(#a)"/>
</svg>
