<svg xmlns="http://www.w3.org/2000/svg" width="41" height="41">
    <defs>
        <filter id="a">
            <feFlood flood-color="#000" flood-opacity="1" result="floodOut"/>
            <feComposite in="floodOut" in2="SourceGraphic" operator="atop" result="compOut"/>
            <feBlend in="compOut" in2="SourceGraphic"/>
        </filter>
    </defs>
    <path fill="#F3F9FC" fill-rule="evenodd" d="M40.997 34.231a.684.684 0 0 1-.742.618l-6.909-.63-1.243 6.231a.683.683 0 0 1-1.239.245l-4.794-7.192-1.018 1.698-.015.024a.684.684 0 0 1-.947.195l-3.59-2.363-3.588 2.363a.677.677 0 0 1-.53.095.678.678 0 0 1-.435-.314l-1.018-1.697-4.794 7.191a.68.68 0 0 1-.701.293.682.682 0 0 1-.537-.536l-1.235-6.177-6.856 1.246a.684.684 0 0 1-.704-1.029l5.038-8.187-.907-.283a.681.681 0 0 1-.433-.9l1.536-3.948-3.127-2.908-.035-.033a.684.684 0 0 1 .035-.966l3.13-2.908-1.535-3.95a.684.684 0 0 1 .433-.899l4.108-1.282.36-4.217.004-.036a.682.682 0 0 1 .77-.582l4.278.593L15.948.332l.015-.025a.683.683 0 0 1 .947-.193l3.59 2.364L24.091.114a.683.683 0 0 1 .962.218l2.191 3.652 4.278-.592a.686.686 0 0 1 .775.619l.359 4.217 4.111 1.283c.015.005.029.009.044.016a.68.68 0 0 1 .389.883l-1.536 3.95 3.127 2.907.035.034a.683.683 0 0 1-.035.965l-3.127 2.908 1.535 3.949a.685.685 0 0 1-.433.9l-.875.273 4.994 7.494a.686.686 0 0 1 .112.441zm-38.929-.33l6.01-1.093a.683.683 0 0 1 .792.537l1.045 5.218 4.237-6.354-.396-.66-4.278.592a.683.683 0 0 1-.775-.621l-.359-4.216-1.858-.579-4.418 7.176zm35.254-16.135l-2.927-2.722a.683.683 0 0 1-.172-.75l1.439-3.697-3.85-1.2a.685.685 0 0 1-.479-.593l-.337-3.957-4.012.554a.687.687 0 0 1-.68-.325l-2.057-3.429-3.371 2.218a.685.685 0 0 1-.752 0l-3.363-2.218-2.057 3.429a.683.683 0 0 1-.683.325l-4.012-.555-.338 3.957a.681.681 0 0 1-.478.593l-3.85 1.2 1.435 3.698a.686.686 0 0 1-.172.75l-2.928 2.722 2.925 2.723a.683.683 0 0 1 .171.748l-1.435 3.698 3.849 1.202a.683.683 0 0 1 .479.594l.337 3.955 4.012-.555a.684.684 0 0 1 .68.326l2.057 3.43 3.371-2.221a.688.688 0 0 1 .752 0l3.371 2.224 2.056-3.431a.693.693 0 0 1 .68-.326l4.011.554.338-3.955a.684.684 0 0 1 .478-.595l3.847-1.2-1.435-3.7a.685.685 0 0 1 .172-.748l2.928-2.723zm-2.789 8.955l-1.875.584-.361 4.217-.004.035a.682.682 0 0 1-.771.583l-4.277-.592-.395.659 4.237 6.354 1.043-5.216a.691.691 0 0 1 .731-.545l6.094.557-4.422-6.636zm-4.74-10.641a2.014 2.014 0 0 1-.336 2.456 1.89 1.89 0 0 1-.347.278c.465.797.326 1.81-.336 2.455a1.891 1.891 0 0 1-.348.277c.177.306.271.652.274 1.003a2.06 2.06 0 0 1-2.05 2.05H16.4a.683.683 0 0 1-.683.684h-4.784a.683.683 0 0 1-.683-.684V14.351c0-.379.306-.683.683-.683h4.784a.677.677 0 0 1 .671.634l2.199-1.759 1.23-2.454V6.834c0-.378.306-.683.683-.683h.007a3.413 3.413 0 0 1 3.41 3.416V12.3H28.7a2.05 2.05 0 0 1 2.05 2.051 2.012 2.012 0 0 1-.61 1.451 1.857 1.857 0 0 1-.347.278zm-14.76-1.047h-3.416v8.884h3.416v-8.884zM28.7 13.668h-5.467a.685.685 0 0 1-.683-.684V9.567a2.044 2.044 0 0 0-1.367-1.934v2.617a.678.678 0 0 1-.072.306l-1.366 2.732a.69.69 0 0 1-.185.23l-3.16 2.528v7.186h10.25a.651.651 0 0 0 .474-.196.666.666 0 0 0 .209-.487.683.683 0 0 0-.683-.683H24.6v-1.365h2.733a.648.648 0 0 0 .474-.199.659.659 0 0 0 .209-.485.682.682 0 0 0-.683-.684h-2.05v-1.367h2.733a.653.653 0 0 0 .475-.197.662.662 0 0 0 .209-.485.685.685 0 0 0-.684-.685h-2.05v-1.366H28.7a.655.655 0 0 0 .474-.196.666.666 0 0 0 .209-.486.682.682 0 0 0-.683-.683z" filter="url(#a)"/>
</svg>
