<svg xmlns="http://www.w3.org/2000/svg" width="59" height="79">
    <defs>
        <filter id="a">
            <feFlood flood-color="#000" flood-opacity="1" result="floodOut"/>
            <feComposite in="floodOut" in2="SourceGraphic" operator="atop" result="compOut"/>
            <feBlend in="compOut" in2="SourceGraphic"/>
        </filter>
    </defs>
    <path fill="#E23637" fill-rule="evenodd" d="M57.884 20.824a1.737 1.737 0 0 0-1.755.044l-11.182 6.944v-5.487c0-.948-.773-1.716-1.729-1.716h-1.922c2.249-2.185 3.651-5.226 3.651-8.588 0-6.629-5.43-12.02-12.101-12.02-4.404 0-8.254 2.357-10.372 5.86-2.117-3.503-5.967-5.86-10.372-5.86-6.672 0-12.1 5.391-12.1 12.02 0 3.362 1.402 6.403 3.649 8.588H1.73c-.954 0-1.728.768-1.728 1.716V49.8c0 .947.774 1.717 1.728 1.717h12.101v7.987L.38 76.203a1.71 1.71 0 0 0 .27 2.414 1.736 1.736 0 0 0 2.429-.268l13.31-16.528h4.357v15.456c0 .946.774 1.717 1.728 1.717.955 0 1.729-.771 1.729-1.717V61.821h4.356l13.309 16.528a1.736 1.736 0 0 0 2.431.268 1.71 1.71 0 0 0 .269-2.414l-13.45-16.699v-7.987h12.1c.956 0 1.729-.77 1.729-1.717v-5.483l11.184 6.94a1.749 1.749 0 0 0 1.753.046c.552-.305.892-.88.892-1.503V22.325c0-.622-.34-1.199-.892-1.501zM32.846 3.434c4.766 0 8.644 3.851 8.644 8.587 0 4.734-3.878 8.586-8.644 8.586s-8.643-3.852-8.643-8.586c0-4.736 3.877-8.587 8.643-8.587zM3.459 12.021c0-4.736 3.877-8.587 8.643-8.587 4.766 0 8.644 3.851 8.644 8.587 0 4.734-3.878 8.586-8.644 8.586s-8.643-3.852-8.643-8.586zM27.66 58.387H17.288v-6.87H27.66v6.87zM41.49 30.91V48.083H3.459V24.044h8.643l.011-.002c4.399-.004 8.245-2.359 10.361-5.862a12.112 12.112 0 0 0 10.362 5.862l.01.002h8.644v6.866zm13.829 15.791l-10.372-6.434v-8.404l10.372-6.44v21.278z" filter="url(#a)"/>
</svg>
