<svg xmlns="http://www.w3.org/2000/svg" width="30" height="37">
    <defs>
        <filter id="a">
            <feFlood flood-color="#000" flood-opacity="1" result="floodOut"/>
            <feComposite in="floodOut" in2="SourceGraphic" operator="atop" result="compOut"/>
            <feBlend in="compOut" in2="SourceGraphic"/>
        </filter>
    </defs>
    <path fill="#F3F9FC" fill-rule="evenodd" d="M25.954 36.382H3.823C2 36.382.518 34.858.518 32.986V6.816C.518 4.944 2 3.42 3.823 3.42h5.176a4.085 4.085 0 0 1 2.873-1.185h.595c.454-.925 1.387-1.534 2.421-1.534 1.035 0 1.968.609 2.422 1.534h.593c1.113 0 2.125.45 2.873 1.185h5.178c1.822 0 3.305 1.524 3.305 3.396v26.17c0 1.872-1.483 3.396-3.305 3.396zM17.903 3.627h-1.055a.679.679 0 0 1-.653-.511 1.367 1.367 0 0 0-1.307-1.022c-.607 0-1.145.421-1.306 1.022a.68.68 0 0 1-.654.511h-1.056c-1.471 0-2.682 1.167-2.803 2.65h11.638c-.121-1.483-1.332-2.65-2.804-2.65zm10 3.189c0-1.103-.874-2.003-1.949-2.003h-4.228c.222.523.346 1.099.346 1.708v.452a.687.687 0 0 1-.678.697H8.381a.688.688 0 0 1-.678-.697v-.452c0-.609.124-1.185.346-1.708H3.823c-1.075 0-1.949.9-1.949 2.003v26.17c0 1.104.874 2.003 1.949 2.003h22.131c1.075 0 1.949-.899 1.949-2.003V6.816zM24.65 27.741h-9.762a.686.686 0 0 1-.677-.696c0-.386.303-.697.677-.697h9.762c.374 0 .678.311.678.697a.687.687 0 0 1-.678.696zm-2.372-5.371a.714.714 0 0 1 0 .986.672.672 0 0 1-.479.204.672.672 0 0 1-.48-.204.712.712 0 0 1 0-.986.677.677 0 0 1 .48-.205c.178 0 .353.076.479.205zm-7.39-.205h4.059c.375 0 .678.312.678.698a.687.687 0 0 1-.678.697h-4.059a.687.687 0 0 1-.677-.697c0-.386.303-.698.677-.698zm9.762-1.951h-9.762a.687.687 0 0 1-.677-.696c0-.385.303-.697.677-.697h9.762c.374 0 .678.312.678.697a.688.688 0 0 1-.678.696zm-2.372-5.371a.716.716 0 0 1 0 .986.668.668 0 0 1-.959 0 .712.712 0 0 1 0-.986.676.676 0 0 1 .48-.204c.178 0 .353.075.479.204zm-7.39-.204h4.059c.375 0 .678.313.678.697a.687.687 0 0 1-.678.697h-4.059a.687.687 0 0 1-.677-.697c0-.384.303-.697.677-.697zm9.762-1.95h-9.762a.689.689 0 0 1-.677-.698c0-.384.303-.697.677-.697h9.762c.374 0 .678.313.678.697a.69.69 0 0 1-.678.698zM7.2 15.585a.667.667 0 0 1-.959 0l-1.372-1.412a.708.708 0 0 1 0-.984.666.666 0 0 1 .959 0l.893.918 2.898-2.981a.666.666 0 0 1 .959 0 .71.71 0 0 1 0 .986L7.2 15.585zm-1.53 3.236h3.253c.375 0 .678.312.678.697v3.345a.687.687 0 0 1-.678.697H5.67a.687.687 0 0 1-.678-.697v-3.345c0-.385.303-.697.678-.697zm.677 3.344h1.898v-1.951H6.347v1.951zm-.677 4.183h3.253c.375 0 .678.311.678.697v3.345a.686.686 0 0 1-.678.696H5.67a.686.686 0 0 1-.678-.696v-3.345c0-.386.303-.697.678-.697zm.677 3.345h1.898v-1.952H6.347v1.952zm8.541 0h4.059c.375 0 .678.311.678.697a.686.686 0 0 1-.678.696h-4.059a.686.686 0 0 1-.677-.696c0-.386.303-.697.677-.697zm6.911 0c.178 0 .353.074.479.203a.716.716 0 0 1 0 .987.679.679 0 0 1-.479.203.68.68 0 0 1-.48-.203.714.714 0 0 1 0-.987.675.675 0 0 1 .48-.203zM14.888 3.697c.178 0 .353.076.479.205a.713.713 0 0 1 0 .986.676.676 0 0 1-.479.204.678.678 0 0 1-.48-.204.715.715 0 0 1 0-.986.68.68 0 0 1 .48-.205z" filter="url(#a)"/>
</svg>
