<svg xmlns="http://www.w3.org/2000/svg" width="40" height="38">
    <defs>
        <filter id="a">
            <feFlood flood-color="#000" flood-opacity="1" result="floodOut"/>
            <feComposite in="floodOut" in2="SourceGraphic" operator="atop" result="compOut"/>
            <feBlend in="compOut" in2="SourceGraphic"/>
        </filter>
    </defs>
    <path fill="#F3F9FC" fill-rule="evenodd" d="M39.414 31.747h-.107v5.665a.586.586 0 1 1-1.172 0v-5.665h-1.602v5.665a.585.585 0 1 1-1.172 0V29.77c0-.324.263-.589.586-.589.324 0 .586.265.586.589v.802h2.295v-2.865c0-.617-.368-1.163-.939-1.391l-2.337-.936a6.13 6.13 0 0 1-11.69 0l-2.337.936a1.49 1.49 0 0 0-.939 1.391v2.865h2.295v-.802c0-.324.262-.589.586-.589.323 0 .586.265.586.589v7.642a.586.586 0 1 1-1.172 0v-5.665h-1.602v5.665a.585.585 0 1 1-1.172 0v-5.665H20a.591.591 0 0 1-.586-.588v-.803h-1.602v7.056a.585.585 0 1 1-1.171 0V26.294c0-.09.021-.179.061-.261l1.387-2.779a.583.583 0 0 1 .786-.262c.29.143.407.497.262.786l-1.325 2.656v2.747h1.602v-1.474c0-1.099.658-2.074 1.676-2.481l4.754-1.905a.954.954 0 0 0 .115-.059c-3.22-.649-4.728-1.261-4.794-1.288a.587.587 0 0 1-.36-.616c.007-.055.689-5.579.689-10.349 0-4.538 3.684-8.23 8.213-8.23 4.529 0 8.213 3.692 8.213 8.23 0 4.771.682 10.294.689 10.349a.587.587 0 0 1-.36.616c-.066.027-1.574.639-4.794 1.288a.824.824 0 0 0 .115.058l4.754 1.905A2.66 2.66 0 0 1 40 27.707v3.452a.587.587 0 0 1-.586.588zm-17.391-10.71c.649.222 2.069.658 4.325 1.106v-1.011a6.863 6.863 0 0 1-3.449-5.451 1.894 1.894 0 0 1-.389-.167 113.58 113.58 0 0 1-.487 5.523zm7.684-.193a5.583 5.583 0 0 0 3.552-1.257 5.693 5.693 0 0 0 1.962-3.15c.093-.411.14-.834.14-1.26 0-2.346-1.343-2.722-3.919-3.235-1.398-.278-2.961-.589-4.328-1.471-.582.903-1.87 2.514-3.647 2.514a.803.803 0 0 0 0 1.605c.323 0 .586.263.586.587 0 .425.047.849.14 1.26a5.693 5.693 0 0 0 1.962 3.15 5.583 5.583 0 0 0 3.552 1.257zm7.684.193c-.164-1.446-.643-5.996-.643-10.028 0-3.891-3.158-7.056-7.041-7.056-3.882 0-7.041 3.165-7.041 7.056 0 .323-.003.648-.009.977.247-.111.521-.175.81-.175.847 0 1.586-.637 2.056-1.171.555-.629.884-1.278.887-1.283a.583.583 0 0 1 .89-.195c1.261 1.01 2.842 1.324 4.37 1.628 2.391.476 4.863.968 4.863 4.387 0 .514-.057 1.024-.169 1.52a6.863 6.863 0 0 1-3.298 4.435v1.011c2.255-.448 3.676-.884 4.325-1.106zm-4.256 3.374a1.968 1.968 0 0 1-1.24-1.836v-.919a6.834 6.834 0 0 1-2.188.362 6.839 6.839 0 0 1-2.188-.362v.919c0 .813-.486 1.533-1.24 1.836l-1.326.53a4.96 4.96 0 0 0 9.508 0l-1.326-.53zm-6.201-11.21c.323 0 .585.262.585.588v.694a.586.586 0 1 1-1.171 0v-.694c0-.326.262-.588.586-.588zm1.842 3.691c.249.307.58.478.931.478.352 0 .683-.171.932-.478a.585.585 0 0 1 .824-.086.59.59 0 0 1 .086.827c-.469.578-1.14.912-1.842.912-.701 0-1.372-.334-1.842-.912a.586.586 0 1 1 .911-.741zm3.704-3.691c.324 0 .586.262.586.588v.694a.586.586 0 1 1-1.171 0v-.694c0-.326.262-.588.585-.588zm-13.403 8.122a.579.579 0 0 1-.169-.023l-1.277-.385a6.855 6.855 0 0 1-2.194 3.619 6.817 6.817 0 0 1-4.451 1.653c-3.177 0-5.93-2.226-6.645-5.272l-2.104.633a1.49 1.49 0 0 0-1.065 1.434v6.199H4.16v-2.747l-1.325-2.656a.586.586 0 0 1 1.048-.525l1.387 2.78a.583.583 0 0 1 .062.261v11.118a.585.585 0 1 1-1.172 0v-7.056H1.865v7.056a.585.585 0 1 1-1.172 0v-7.056H.586A.586.586 0 0 1 0 29.77v-6.788c0-1.189.763-2.218 1.9-2.559l5.034-1.513v-1.708a6.84 6.84 0 0 1-2.756-4.994 1.982 1.982 0 0 1-1.405-1.895c0-.577.259-1.124.694-1.496V5.451C3.467 2.445 5.907 0 8.906 0h5.547c1.221 0 2.26.815 2.568 1.976a3.368 3.368 0 0 1 1.485 2.78v4.061c.434.372.693.919.693 1.496a1.98 1.98 0 0 1-1.405 1.895 6.838 6.838 0 0 1-2.755 4.994v1.708l4.206 1.265a.586.586 0 0 1-.168 1.148zm-2.436-9.618c0-.325.262-.588.586-.588.441 0 .8-.36.8-.804a.796.796 0 0 0-.402-.689.587.587 0 0 1-.291-.508v-4.36c0-.783-.43-1.51-1.122-1.901a.587.587 0 0 1-.29-.418 1.484 1.484 0 0 0-1.469-1.263H8.906a4.276 4.276 0 0 0-4.267 4.277v2.89c.035-.002.071-.003.107-.003h.887c.046 0 .087-.03.102-.075l.535-1.609a.587.587 0 0 1 .556-.402c.054 0 5.442-.015 8.058-1.326a.588.588 0 0 1 .525 1.049c-2.44 1.223-6.781 1.416-8.159 1.446l-.403 1.214a1.278 1.278 0 0 1-1.214.877h-.887a.8.8 0 0 0-.362.088.292.292 0 0 1-.037.024.798.798 0 0 0 .399 1.493c.324 0 .586.263.586.588 0 3.123 2.536 5.665 5.654 5.665s5.655-2.542 5.655-5.665zm-8.536 6.199v1.441l.001.009a2.887 2.887 0 0 0 2.88 2.88 2.888 2.888 0 0 0 2.881-2.888v-1.442a6.779 6.779 0 0 1-2.881.641 6.779 6.779 0 0 1-2.881-.641zm6.861 2.211a4.062 4.062 0 0 1-3.98 3.293 4.06 4.06 0 0 1-3.979-3.293l-1.54.462c.566 2.558 2.863 4.437 5.519 4.437a5.648 5.648 0 0 0 3.687-1.371 5.68 5.68 0 0 0 1.833-3.066l-1.54-.462zm-1.206-8.519a.586.586 0 0 1-.586-.587v-.696a.586.586 0 0 1 1.172 0v.696a.587.587 0 0 1-.586.587zm-2.774 3.474c-.701 0-1.372-.332-1.841-.912a.587.587 0 0 1 .91-.74c.249.309.58.479.931.479.352 0 .683-.17.932-.479a.586.586 0 1 1 .91.74c-.469.58-1.14.912-1.842.912zm-2.773-3.474a.586.586 0 0 1-.586-.587v-.696a.586.586 0 0 1 1.172 0v.696a.586.586 0 0 1-.586.587z" filter="url(#a)"/>
</svg>
