<svg xmlns="http://www.w3.org/2000/svg" width="97" height="79">
    <defs>
        <filter id="a">
            <feFlood flood-color="#000" flood-opacity="1" result="floodOut"/>
            <feComposite in="floodOut" in2="SourceGraphic" operator="atop" result="compOut"/>
            <feBlend in="compOut" in2="SourceGraphic"/>
        </filter>
    </defs>
    <path fill="#E23637" fill-rule="evenodd" d="M95.347 78.999H39.802a1.635 1.635 0 0 1-.269-.06C18.149 78.479.893 60.924.893 39.453.893 17.692 18.613 0 40.394 0s39.501 17.723 39.501 39.482c0 8.192-2.513 15.706-6.808 22.163h22.261c.892 0 1.652.641 1.652 1.534v14.125a1.716 1.716 0 0 1-1.653 1.695zm-31.876-3.228v-4.296a50.115 50.115 0 0 1-7.467 4.296h7.467zm13.191-36.329c0-19.98-16.27-36.234-36.268-36.234-19.999 0-36.269 16.254-36.269 36.234s16.27 36.235 36.269 36.235c19.998 0 36.268-16.255 36.268-36.235zM73.57 64.874h-2.93a44.459 44.459 0 0 1-3.937 4.008v6.889h6.867V64.874zm10.099 0h-6.867v10.897h6.867V64.874zm10.099 0h-6.867v10.897h6.867V64.874zM54.674 46.789a10.304 10.304 0 0 1-1.289-13.017 10.326 10.326 0 0 1 12.526-3.804 10.308 10.308 0 0 1 6.18 11.532 10.318 10.318 0 0 1-10.115 8.305 10.301 10.301 0 0 1-7.302-3.016zm12.32-12.31a7.104 7.104 0 0 0-10.036 0h.001a7.063 7.063 0 0 0-.001 10.026 7.103 7.103 0 0 0 10.036 0 7.085 7.085 0 0 0 0-10.026zm-26.55 36.843a10.325 10.325 0 0 1-10.129-8.304 10.315 10.315 0 0 1 6.177-11.544 10.33 10.33 0 0 1 12.539 3.799A10.31 10.31 0 0 1 47.747 68.3a10.262 10.262 0 0 1-7.303 3.022zm5.017-15.332a7.103 7.103 0 0 0-10.035 0v.001a7.058 7.058 0 0 0 0 10.025 7.099 7.099 0 0 0 10.035.001 7.085 7.085 0 0 0 0-10.027zm.618-22.23a8.1 8.1 0 0 1 .001 11.463 8.119 8.119 0 0 1-11.475 0 8.1 8.1 0 0 1 .001-11.463 8.13 8.13 0 0 1 11.473 0zm-8.448 9.787a4.88 4.88 0 1 0 7.593-4.055 4.881 4.881 0 0 0-9.391-1.866 4.875 4.875 0 0 0 1.798 5.921zm2.712-15.356a10.302 10.302 0 0 1-7.303-3.017 10.304 10.304 0 0 1-1.29-13.02 10.326 10.326 0 0 1 12.531-3.805 10.31 10.31 0 0 1-3.938 19.842zm5.017-15.326a7.099 7.099 0 0 0-10.035.001 7.042 7.042 0 0 0 0 10.026 7.101 7.101 0 0 0 10.035 0 7.085 7.085 0 0 0 0-10.027zM11.507 46.687c-4.034-4.03-4.034-10.563 0-14.591 4.036-4.023 10.57-4.023 14.606 0 4.033 4.028 4.033 10.561 0 14.591-4.034 4.029-10.573 4.029-14.606 0zm12.321-12.309a7.1 7.1 0 0 0-10.029.004 7.08 7.08 0 0 0 0 10.019 7.099 7.099 0 0 0 10.029.004v-.001a7.094 7.094 0 0 0 0-10.026z" filter="url(#a)"/>
</svg>
