<svg xmlns="http://www.w3.org/2000/svg" width="206" height="196">
    <defs>
        <linearGradient id="a" x1="0%" x2="0%" y1="100%" y2="0%">
            <stop offset="0%" stop-color="#FDD043"/>
            <stop offset="100%" stop-color="#FDE8A3"/>
        </linearGradient>
    </defs>
    <path fill="#F3F9FC" fill-rule="evenodd" d="M205.33 74.287a3.678 3.678 0 0 0-2.972-2.495l-66.547-9.641L106.05 2.048a3.676 3.676 0 0 0-3.296-2.044 3.672 3.672 0 0 0-3.296 2.044L69.694 62.155 3.147 71.793a3.685 3.685 0 0 0-2.972 2.498 3.656 3.656 0 0 0 .93 3.756l48.158 46.783-11.371 66.065a3.668 3.668 0 0 0 1.461 3.585 3.66 3.66 0 0 0 3.873.28l59.528-31.189 59.521 31.189a3.693 3.693 0 0 0 3.877-.28 3.654 3.654 0 0 0 1.461-3.585l-11.367-66.061 48.157-46.787a3.665 3.665 0 0 0 .927-3.76z"/>
    <path fill="url(#a)" d="M205.33 74.287a3.678 3.678 0 0 0-2.972-2.495l-66.547-9.641L106.05 2.048a3.676 3.676 0 0 0-3.296-2.044 3.672 3.672 0 0 0-3.296 2.044L69.694 62.155 3.147 71.793a3.685 3.685 0 0 0-2.972 2.498 3.656 3.656 0 0 0 .93 3.756l48.158 46.783-11.371 66.065a3.668 3.668 0 0 0 1.461 3.585 3.66 3.66 0 0 0 3.873.28l59.528-31.189 59.521 31.189a3.693 3.693 0 0 0 3.877-.28 3.654 3.654 0 0 0 1.461-3.585l-11.367-66.061 48.157-46.787a3.665 3.665 0 0 0 .927-3.76z"/>
</svg>
