<svg xmlns="http://www.w3.org/2000/svg" width="228" height="217">
    <defs>
        <linearGradient id="a" x1="0%" x2="0%" y1="100%" y2="0%">
            <stop offset="0%" stop-color="#F4E1A3"/>
            <stop offset="87%" stop-color="#FECB31"/>
            <stop offset="100%" stop-color="#EBB133"/>
        </linearGradient>
    </defs>
    <path fill="#F3F9FC" fill-rule="evenodd" d="M224.807 83.303a3.982 3.982 0 0 0-3.211-2.7l-71.887-10.418-32.149-64.97A3.968 3.968 0 0 0 114 3.003c-1.51 0-2.897.857-3.561 2.212L78.287 70.188 6.4 80.608a3.978 3.978 0 0 0-3.211 2.699 3.951 3.951 0 0 0 1.005 4.059l52.022 50.573-12.283 71.414a3.967 3.967 0 0 0 1.577 3.876 3.948 3.948 0 0 0 4.185.302L114 179.818l64.297 33.713a3.986 3.986 0 0 0 4.188-.302 3.952 3.952 0 0 0 1.578-3.876l-12.279-71.409 52.022-50.578a3.96 3.96 0 0 0 1.001-4.063z"/>
    <path fill="url(#a)" d="M224.807 83.303a3.982 3.982 0 0 0-3.211-2.7l-71.887-10.418-32.149-64.97A3.968 3.968 0 0 0 114 3.003c-1.51 0-2.897.857-3.561 2.212L78.287 70.188 6.4 80.608a3.978 3.978 0 0 0-3.211 2.699 3.951 3.951 0 0 0 1.005 4.059l52.022 50.573-12.283 71.414a3.967 3.967 0 0 0 1.577 3.876 3.948 3.948 0 0 0 4.185.302L114 179.818l64.297 33.713a3.986 3.986 0 0 0 4.188-.302 3.952 3.952 0 0 0 1.578-3.876l-12.279-71.409 52.022-50.578a3.96 3.96 0 0 0 1.001-4.063z"/>
</svg>
